PathFileType	4	(X/Y/Z)	11_2_39_p1_0-247_filt_butterworth.trc
DataRate	CameraRate	NumFrames	NumMarkers	Units	OrigDataRate	OrigDataStartFrame	OrigNumFrames
59.0	59.0	5	27	m	59.0	61	247
Frame#	Time	RHip			RKnee			RAnkle			RBigToe			RSmallToe			RHeel			LHip			LKnee			LAnkle			LBigToe			LSmallToe			LHeel			Neck			Head			Nose			RShoulder			RElbow			RWrist			RThumb			RIndex			RPinky			LShoulder			LElbow			LWrist			LThumb			LIndex			LPinky			
		X1	Y1	Z1	X2	Y2	Z2	X3	Y3	Z3	X4	Y4	Z4	X5	Y5	Z5	X6	Y6	Z6	X7	Y7	Z7	X8	Y8	Z8	X9	Y9	Z9	X10	Y10	Z10	X11	Y11	Z11	X12	Y12	Z12	X13	Y13	Z13	X14	Y14	Z14	X15	Y15	Z15	X16	Y16	Z16	X17	Y17	Z17	X18	Y18	Z18	X19	Y19	Z19	X20	Y20	Z20	X21	Y21	Z21	X22	Y22	Z22	X23	Y23	Z23	X24	Y24	Z24	X25	Y25	Z25	X26	Y26	Z26	X27	Y27	Z27	
61	1.0338983050847457	0.3445670490132118	0.6161716433046882	0.6053786991883593	0.34111445111819294	0.6442197097050829	1.026579293902415	0.3403341351973788	0.786373642057703	1.4761969443557055	0.3492837989742661	0.5398964871590753	1.4564177252453474	0.3993072292813712	0.5817455779647196	1.4558507066956932	0.3234925758756093	0.8380523417029258	1.5304132691056598	0.14706336234614742	0.6190509690390612	0.6240369571121216	0.15835020904475441	0.6491402919861166	1.0275059805870075	0.17325653191160612	0.722323898347599	1.451191067852069	0.19106983855807658	0.5513882216439994	1.45677740126789	0.13844596412166524	0.5827360242650543	1.4550489168987168	0.18707877247612917	0.8064555003320837	1.5147021081936602	0.2238948038036753	0.5860927117425431	0.0847587522155179	0.22347088037598614	0.5556920678427602	-0.13921850011046522	0.2343222480765079	0.4483584833620799	-0.017192984583548704	0.374911715056713	0.5753222227020016	0.1665521879040404	0.4077038655621907	0.5550200633098072	0.4194933607514405	0.34486864744380685	0.4335836607117209	0.6037584486485004	0.26595059240614755	0.3990556368098878	0.6731286428772951	0.26249399925324096	0.40627423307976207	0.6800774056039635	0.2659272348708338	0.42105777294200414	0.6870396565094745	0.09961301366625533	0.5807847583481313	0.1719580267434425	0.0987346501251969	0.514116527637221	0.41023653229878015	0.1779642295246677	0.4300242635909859	0.5921964241363455	0.2612838030010443	0.392185277677144	0.6435306434928956	0.25775257093916354	0.3815602807580672	0.6668845322215861	0.2540248807764308	0.40700700577466986	0.6796105627549626
62	1.0508474576271187	0.3448551388510329	0.6167000819564658	0.6070533123527044	0.3413355806743687	0.6441158510647068	1.0269412561948834	0.3403188504716469	0.786404011175511	1.4762489845426607	0.3495910437665719	0.5401146713923525	1.4575182811877945	0.3992316510690704	0.5819884905654459	1.4559967823683757	0.3235082049884658	0.8381251342277514	1.5304829945265321	0.14611748631158317	0.619087914565286	0.6252657053584996	0.15782248083503914	0.6487000666244449	1.0267946879198933	0.17357357013735272	0.7266578031012468	1.4522547060916122	0.1895704995063539	0.5536671017345469	1.4573770553000263	0.13835140981141072	0.5827560904043603	1.455181046288153	0.18752931004385698	0.8067367070211247	1.5171647563224457	0.2238597931348419	0.5860240012716708	0.084632417656651	0.22345721133470248	0.5559989206289876	-0.13859736741048692	0.2341586998454916	0.4544116723735495	-0.01691239987543155	0.3737851773492746	0.5787233892633133	0.16660404045607677	0.40824322164664995	0.5553032191837419	0.41963561650433123	0.3448271214136952	0.43386331725661964	0.6033876713987902	0.26396922112661825	0.40354998251456725	0.6733854727776093	0.2622552415523815	0.40657587984241905	0.6802132647983645	0.2656973834806359	0.4211847593683969	0.6861395424431735	0.09974736634022834	0.581896686993137	0.17183149477626103	0.0973136235952867	0.5172507219802513	0.40949503221994166	0.1769813237166647	0.4289964354087453	0.5919537342363305	0.2610628418422932	0.39241006584157323	0.6445907324157435	0.2578648349656785	0.3830264699230791	0.6667549366157275	0.25397493551809786	0.40698389754921954	0.6795145094475785
63	1.0677966101694916	0.3451935286009449	0.61706056260497	0.6079159396556286	0.3423429834570154	0.6447227051159246	1.0282776389860875	0.3403106408508477	0.7864356309056746	1.4762795982019212	0.34990368262486915	0.5402413001222347	1.4583528576382294	0.39921277272996414	0.5823647784702413	1.4562130169441643	0.32351951906155835	0.8381507894354054	1.530561942310502	0.14504014515791658	0.6191338256338909	0.6259747861586706	0.1579614291166419	0.6488406773254017	1.0258333463742322	0.1736723640573128	0.7298437330765744	1.4534391278743906	0.18958583428303072	0.5556797317414957	1.4586869000501732	0.13836787643929155	0.5825791976849095	1.4555474145180567	0.18803438232146313	0.8069855303120474	1.5202252557039766	0.22379071049467308	0.585852802153592	0.08471132426182244	0.22334802737542986	0.5577137847906857	-0.1381131132794123	0.23315118427843964	0.46279028459150234	-0.016497262565449648	0.3729103700672754	0.5813895223148053	0.1664022666115694	0.4095831513537524	0.5562017463225921	0.4201410254047847	0.3447188625387834	0.43433723998516116	0.6023977262762445	0.26237213632071454	0.40713170056867376	0.6736569445472445	0.2620125896346898	0.4068558451813259	0.6803980101115654	0.2655790798230073	0.4213113857346157	0.686006790719513	0.09975644766283981	0.5819496931277109	0.17191277397442495	0.09539100765544009	0.5218064078641793	0.40958649499097954	0.17566910246800957	0.4279838793281734	0.5917300608588763	0.26079915413946547	0.3927278172422762	0.6460172191201613	0.25832525837450965	0.38632720559878686	0.6666779389515974	0.2541668536214709	0.40817293247080816	0.6796089786591202
64	1.0847457627118644	0.3453419507968958	0.6171442174292516	0.607771504027162	0.34362083307740016	0.6464883410819823	1.0304644260275735	0.34030407002604646	0.7864591546298338	1.4763072114719966	0.3500920482022987	0.540223849966828	1.458294375038745	0.39922216688107487	0.582761351890169	1.4564240042899326	0.3235166466032351	0.8381323046102663	1.530603504536104	0.14432596810898948	0.6191918971588504	0.626263002982734	0.15826432517899608	0.6492065715621447	1.0256912509152165	0.17334819092394818	0.7308445156251496	1.4547122276758024	0.19136778427653384	0.5566378728568494	1.4604395874445324	0.13851410930315267	0.5820639988094342	1.4564145889989637	0.18833812129920657	0.8071165422526271	1.522435681239288	0.22376317388248504	0.5859717583015094	0.08479717005937416	0.22303199530008774	0.5614983595100749	-0.1379577284227884	0.23224527899495767	0.4693070681618733	-0.01616203068585313	0.3717288614812292	0.5848922463603508	0.16662820696179745	0.4114810482972141	0.5583081869109963	0.4211697216337174	0.3445288623956486	0.4350364315864423	0.601062485955433	0.2616952390787114	0.4085931553289417	0.6737944021528736	0.2618232327989357	0.4070527277117791	0.680813989569772	0.26552533441431614	0.4214078546444242	0.6860828674502125	0.0997511047444869	0.5818112722651061	0.17197201925289657	0.09389462905920451	0.5257417142358295	0.410750079938039	0.17467099379875883	0.42742258926130794	0.5916043338719453	0.2605872552404953	0.39308487836405137	0.6471652387130029	0.25899364903668376	0.39059424037688306	0.6666766148420104	0.25476676186215685	0.41126404815516915	0.6801442031989697
65	1.1016949152542372	0.3449547383630386	0.6170175287771432	0.6067604121004457	0.3444424707327063	0.6500589061440393	1.0328253766458728	0.34030091839010207	0.7864780068139114	1.4763426184158364	0.35016892811652567	0.5401007892950548	1.4574632521078115	0.39922676239018645	0.5831135387224554	1.4565666037282496	0.32349789678695123	0.8380758819751359	1.5305653044793055	0.1441222194408384	0.6191852477651837	0.6262998071725836	0.15839436230559978	0.6496730456807808	1.0273029814236962	0.17257299323426906	0.7304448213658393	1.4559462489179469	0.19416150142209027	0.5556190908662283	1.461602594048073	0.13870809532671086	0.5813494412160701	1.4576479144354726	0.1883482326319362	0.8071936699568353	1.5231902506141834	0.22396400711369557	0.5873486467840773	0.08490490021000908	0.2225949777179623	0.5665253322529319	-0.13797002327171293	0.23186557380968514	0.47188547814412457	-0.016014503549847344	0.37025171299069803	0.589123147029051	0.1675486564255399	0.413392311975185	0.5619546894434261	0.4221969775468295	0.34430389653907856	0.43575212663770946	0.600031843366702	0.2620375407803451	0.4077358867416616	0.6735205129648475	0.2617453442229909	0.40719181777218705	0.6812659621457261	0.26550256791438853	0.42146660933674235	0.686093429784183	0.09976316605462707	0.5818577181129105	0.1716929578717926	0.09328165624285487	0.5277329551630531	0.4121019413996165	0.17427389260504195	0.4273338840353753	0.5915711352388456	0.260501701173979	0.3933409180457935	0.6475406366297811	0.25951640891393024	0.3938319000782251	0.666841916949387	0.25559156014733647	0.4152710820657267	0.6811984203996923
